<svg xmlns="http://www.w3.org/2000/svg" xmlns:xlink="http://www.w3.org/1999/xlink" width="864" zoomAndPan="magnify" viewBox="0 0 648 298.499991" height="398" preserveAspectRatio="xMidYMid meet" version="1.0"><defs><clipPath id="2cfae79587"><path d="M 0.542969 65 L 198 65 L 198 293 L 0.542969 293 Z M 0.542969 65 " clip-rule="nonzero"/></clipPath><clipPath id="2d97b859e6"><path d="M 205 69 L 403 69 L 403 297.253906 L 205 297.253906 Z M 205 69 " clip-rule="nonzero"/></clipPath><clipPath id="31165845cb"><path d="M 408 69 L 606 69 L 606 297.253906 L 408 297.253906 Z M 408 69 " clip-rule="nonzero"/></clipPath><clipPath id="fd0a8884a7"><path d="M 431 4 L 647.457031 4 L 647.457031 254 L 431 254 Z M 431 4 " clip-rule="nonzero"/></clipPath></defs><g clip-path="url(#2cfae79587)"><path fill="#78c79e" d="M 197.457031 179.074219 L 0.542969 292.972656 L 0.542969 65.214844 Z M 197.457031 179.074219 " fill-opacity="1" fill-rule="nonzero"/></g><g clip-path="url(#2d97b859e6)"><path fill="#78c79e" d="M 402.707031 183.289062 L 205.789062 297.148438 L 205.789062 69.386719 Z M 402.707031 183.289062 " fill-opacity="1" fill-rule="nonzero"/></g><g clip-path="url(#31165845cb)"><path fill="#78c79e" d="M 605.789062 183.289062 L 408.875 297.148438 L 408.875 69.386719 Z M 605.789062 183.289062 " fill-opacity="1" fill-rule="nonzero"/></g><path fill="#000000" d="M 23.457031 249.566406 L 23.457031 0.101562 L 239.125 124.816406 Z M 35.957031 21.808594 L 35.957031 227.863281 L 214.125 124.816406 Z M 35.957031 21.808594 " fill-opacity="1" fill-rule="nonzero"/><path fill="#000000" d="M 228.710938 253.742188 L 228.710938 4.277344 L 444.375 128.988281 Z M 241.210938 25.980469 L 241.210938 232.082031 L 419.375 129.03125 Z M 241.210938 25.980469 " fill-opacity="1" fill-rule="nonzero"/><g clip-path="url(#fd0a8884a7)"><path fill="#000000" d="M 431.789062 253.742188 L 431.789062 4.277344 L 647.457031 128.988281 Z M 444.289062 25.980469 L 444.289062 232.082031 L 622.457031 129.03125 Z M 444.289062 25.980469 " fill-opacity="1" fill-rule="nonzero"/></g></svg>