<svg xmlns="http://www.w3.org/2000/svg" xmlns:xlink="http://www.w3.org/1999/xlink" width="864" zoomAndPan="magnify" viewBox="0 0 648 430.499987" height="574" preserveAspectRatio="xMidYMid meet" version="1.0"><defs><clipPath id="d37a88ebb5"><path d="M 504 21 L 647.625 21 L 647.625 165 L 504 165 Z M 504 21 " clip-rule="nonzero"/></clipPath><clipPath id="be9dc3bff1"><path d="M 111 333 L 208 333 L 208 429.25 L 111 429.25 Z M 111 333 " clip-rule="nonzero"/></clipPath><clipPath id="2330da9f90"><path d="M 0.375 238 L 66 238 L 66 303 L 0.375 303 Z M 0.375 238 " clip-rule="nonzero"/></clipPath></defs><path fill="#2379be" d="M 279.097656 95.886719 L 228.289062 95.886719 C 215.835938 95.886719 205.707031 85.765625 205.707031 73.320312 L 205.707031 22.566406 C 205.707031 10.121094 215.835938 0 228.289062 0 L 279.097656 0 C 291.546875 0 301.675781 10.121094 301.675781 22.566406 L 301.675781 73.339844 C 301.65625 85.765625 291.546875 95.886719 279.097656 95.886719 Z M 228.289062 5.152344 C 218.6875 5.152344 210.882812 12.953125 210.882812 22.546875 L 210.882812 73.320312 C 210.882812 82.917969 218.6875 90.714844 228.289062 90.714844 L 279.097656 90.714844 C 288.699219 90.714844 296.5 82.917969 296.5 73.320312 L 296.5 22.566406 C 296.5 12.96875 288.699219 5.171875 279.097656 5.171875 L 228.289062 5.171875 Z M 228.289062 5.152344 " fill-opacity="1" fill-rule="nonzero"/><path fill="#2379be" d="M 446.464844 362.964844 L 352.601562 362.964844 C 330.820312 362.964844 313.09375 345.25 313.09375 323.480469 L 313.09375 229.679688 C 313.09375 207.914062 330.820312 190.195312 352.601562 190.195312 L 446.464844 190.195312 C 468.246094 190.195312 485.972656 207.914062 485.972656 229.679688 L 485.972656 323.480469 C 485.972656 345.25 468.246094 362.964844 446.464844 362.964844 Z M 352.601562 195.351562 C 333.667969 195.351562 318.25 210.742188 318.25 229.679688 L 318.25 323.480469 C 318.25 342.402344 333.652344 357.8125 352.601562 357.8125 L 446.464844 357.8125 C 465.394531 357.8125 480.816406 342.417969 480.816406 323.480469 L 480.816406 229.679688 C 480.816406 210.761719 465.414062 195.351562 446.464844 195.351562 Z M 352.601562 195.351562 " fill-opacity="1" fill-rule="nonzero"/><g clip-path="url(#d37a88ebb5)"><path fill="#2379be" d="M 614.375 164.835938 L 537.15625 164.835938 C 518.984375 164.835938 504.191406 150.050781 504.191406 131.894531 L 504.191406 54.722656 C 504.191406 36.566406 518.984375 21.785156 537.15625 21.785156 L 614.375 21.785156 C 632.542969 21.785156 647.335938 36.566406 647.335938 54.722656 L 647.335938 131.894531 C 647.335938 150.050781 632.542969 164.835938 614.375 164.835938 Z M 537.15625 26.9375 C 521.820312 26.9375 509.351562 39.398438 509.351562 54.707031 L 509.351562 131.894531 C 509.351562 147.21875 521.820312 159.679688 537.15625 159.679688 L 614.375 159.679688 C 629.710938 159.679688 642.179688 147.21875 642.179688 131.894531 L 642.179688 54.722656 C 642.179688 39.414062 629.710938 26.957031 614.375 26.957031 L 537.15625 26.957031 Z M 537.15625 26.9375 " fill-opacity="1" fill-rule="nonzero"/></g><path fill="#2379be" d="M 251.140625 253.871094 L 217.890625 253.871094 C 209.253906 253.871094 202.230469 246.851562 202.230469 238.222656 L 202.230469 204.996094 C 202.230469 196.367188 209.253906 189.347656 217.890625 189.347656 L 251.140625 189.347656 C 259.773438 189.347656 266.796875 196.367188 266.796875 204.996094 L 266.796875 238.222656 C 266.796875 246.851562 259.773438 253.871094 251.140625 253.871094 Z M 217.890625 194.519531 C 212.105469 194.519531 207.386719 199.230469 207.386719 205.011719 L 207.386719 238.242188 C 207.386719 244.023438 212.105469 248.734375 217.890625 248.734375 L 251.140625 248.734375 C 256.921875 248.734375 261.640625 244.023438 261.640625 238.242188 L 261.640625 205.011719 C 261.640625 199.230469 256.921875 194.519531 251.140625 194.519531 Z M 217.890625 194.519531 " fill-opacity="1" fill-rule="nonzero"/><g clip-path="url(#be9dc3bff1)"><path fill="#2379be" d="M 184.824219 429.234375 L 134.019531 429.234375 C 121.566406 429.234375 111.4375 419.113281 111.4375 406.671875 L 111.4375 355.894531 C 111.4375 343.453125 121.566406 333.332031 134.019531 333.332031 L 184.824219 333.332031 C 197.277344 333.332031 207.40625 343.453125 207.40625 355.894531 L 207.40625 406.671875 C 207.386719 419.113281 197.277344 429.234375 184.824219 429.234375 Z M 134.019531 338.5 C 124.417969 338.5 116.613281 346.300781 116.613281 355.894531 L 116.613281 406.671875 C 116.613281 416.265625 124.417969 424.0625 134.019531 424.0625 L 184.824219 424.0625 C 194.429688 424.0625 202.230469 416.265625 202.230469 406.671875 L 202.230469 355.894531 C 202.230469 346.300781 194.429688 338.5 184.824219 338.5 Z M 134.019531 338.5 " fill-opacity="1" fill-rule="nonzero"/></g><g clip-path="url(#2330da9f90)"><path fill="#2379be" d="M 49.484375 302.847656 L 16.238281 302.847656 C 7.601562 302.847656 0.578125 295.832031 0.578125 287.203125 L 0.578125 253.972656 C 0.578125 245.34375 7.601562 238.324219 16.238281 238.324219 L 49.484375 238.324219 C 58.121094 238.324219 65.144531 245.34375 65.144531 253.972656 L 65.144531 287.203125 C 65.144531 295.832031 58.121094 302.847656 49.484375 302.847656 Z M 16.238281 243.480469 C 10.453125 243.480469 5.734375 248.191406 5.734375 253.972656 L 5.734375 287.203125 C 5.734375 292.984375 10.453125 297.695312 16.238281 297.695312 L 49.484375 297.695312 C 55.269531 297.695312 59.988281 292.984375 59.988281 287.203125 L 59.988281 253.972656 C 59.988281 248.191406 55.269531 243.480469 49.484375 243.480469 Z M 16.238281 243.480469 " fill-opacity="1" fill-rule="nonzero"/></g></svg>