<svg xmlns="http://www.w3.org/2000/svg"
    xmlns:xlink="http://www.w3.org/1999/xlink" width="23" zoomAndPan="magnify" viewBox="0 0 17.25 17.249999" height="23" preserveAspectRatio="xMidYMid meet" version="1.0">
    <defs>
        <clipPath id="63e93df246">
            <path d="M 15 1 L 15.09375 1 L 15.09375 15 L 15 15 Z M 15 1 " clip-rule="nonzero"/>
        </clipPath>
        <clipPath id="1cc47679b3">
            <path d="M 0 3.59375 L 0 12.304688 C 0 14.289062 1.609375 15.898438 3.59375 15.898438 L 12.304688 15.898438 C 14.289062 15.898438 15.898438 14.289062 15.898438 12.304688 L 15.898438 3.59375 C 15.898438 1.609375 14.289062 0 12.304688 0 L 3.59375 0 C 1.609375 0 0 1.609375 0 3.59375 Z M 0 3.59375 " clip-rule="nonzero"/>
        </clipPath>
        <clipPath id="6f04ca127e">
            <path d="M 4.457031 0.863281 L 11.441406 0.863281 C 12.394531 0.863281 13.308594 1.242188 13.980469 1.914062 C 14.65625 2.589844 15.035156 3.503906 15.035156 4.457031 L 15.035156 11.441406 C 15.035156 13.425781 13.425781 15.035156 11.441406 15.035156 L 4.457031 15.035156 C 3.503906 15.035156 2.589844 14.65625 1.914062 13.980469 C 1.242188 13.308594 0.863281 12.394531 0.863281 11.441406 L 0.863281 4.457031 C 0.863281 2.472656 2.472656 0.863281 4.457031 0.863281 Z M 4.457031 0.863281 " clip-rule="nonzero"/>
        </clipPath>
        <clipPath id="622aa43732">
            <path d="M 1 15 L 15 15 L 15 15.09375 L 1 15.09375 Z M 1 15 " clip-rule="nonzero"/>
        </clipPath>
        <clipPath id="60cf044dfe">
            <path d="M 0 3.59375 L 0 12.304688 C 0 14.289062 1.609375 15.898438 3.59375 15.898438 L 12.304688 15.898438 C 14.289062 15.898438 15.898438 14.289062 15.898438 12.304688 L 15.898438 3.59375 C 15.898438 1.609375 14.289062 0 12.304688 0 L 3.59375 0 C 1.609375 0 0 1.609375 0 3.59375 Z M 0 3.59375 " clip-rule="nonzero"/>
        </clipPath>
        <clipPath id="bc8f0175dd">
            <path d="M 4.457031 0.863281 L 11.441406 0.863281 C 12.394531 0.863281 13.308594 1.242188 13.980469 1.914062 C 14.65625 2.589844 15.035156 3.503906 15.035156 4.457031 L 15.035156 11.441406 C 15.035156 13.425781 13.425781 15.035156 11.441406 15.035156 L 4.457031 15.035156 C 3.503906 15.035156 2.589844 14.65625 1.914062 13.980469 C 1.242188 13.308594 0.863281 12.394531 0.863281 11.441406 L 0.863281 4.457031 C 0.863281 2.472656 2.472656 0.863281 4.457031 0.863281 Z M 4.457031 0.863281 " clip-rule="nonzero"/>
        </clipPath>
        <clipPath id="1127edc1cd">
            <path d="M 14 0.71875 L 15.09375 0.71875 L 15.09375 2 L 14 2 Z M 14 0.71875 " clip-rule="nonzero"/>
        </clipPath>
        <clipPath id="96357c7a01">
            <path d="M 0 3.59375 L 0 12.304688 C 0 14.289062 1.609375 15.898438 3.59375 15.898438 L 12.304688 15.898438 C 14.289062 15.898438 15.898438 14.289062 15.898438 12.304688 L 15.898438 3.59375 C 15.898438 1.609375 14.289062 0 12.304688 0 L 3.59375 0 C 1.609375 0 0 1.609375 0 3.59375 Z M 0 3.59375 " clip-rule="nonzero"/>
        </clipPath>
        <clipPath id="3f1ad9aa67">
            <path d="M 4.457031 0.863281 L 11.441406 0.863281 C 12.394531 0.863281 13.308594 1.242188 13.980469 1.914062 C 14.65625 2.589844 15.035156 3.503906 15.035156 4.457031 L 15.035156 11.441406 C 15.035156 13.425781 13.425781 15.035156 11.441406 15.035156 L 4.457031 15.035156 C 3.503906 15.035156 2.589844 14.65625 1.914062 13.980469 C 1.242188 13.308594 0.863281 12.394531 0.863281 11.441406 L 0.863281 4.457031 C 0.863281 2.472656 2.472656 0.863281 4.457031 0.863281 Z M 4.457031 0.863281 " clip-rule="nonzero"/>
        </clipPath>
        <clipPath id="1544be973c">
            <path d="M 0.71875 0.71875 L 2 0.71875 L 2 2 L 0.71875 2 Z M 0.71875 0.71875 " clip-rule="nonzero"/>
        </clipPath>
        <clipPath id="c0fb62eef2">
            <path d="M 0 3.59375 L 0 12.304688 C 0 14.289062 1.609375 15.898438 3.59375 15.898438 L 12.304688 15.898438 C 14.289062 15.898438 15.898438 14.289062 15.898438 12.304688 L 15.898438 3.59375 C 15.898438 1.609375 14.289062 0 12.304688 0 L 3.59375 0 C 1.609375 0 0 1.609375 0 3.59375 Z M 0 3.59375 " clip-rule="nonzero"/>
        </clipPath>
        <clipPath id="80e88d13fd">
            <path d="M 4.457031 0.863281 L 11.441406 0.863281 C 12.394531 0.863281 13.308594 1.242188 13.980469 1.914062 C 14.65625 2.589844 15.035156 3.503906 15.035156 4.457031 L 15.035156 11.441406 C 15.035156 13.425781 13.425781 15.035156 11.441406 15.035156 L 4.457031 15.035156 C 3.503906 15.035156 2.589844 14.65625 1.914062 13.980469 C 1.242188 13.308594 0.863281 12.394531 0.863281 11.441406 L 0.863281 4.457031 C 0.863281 2.472656 2.472656 0.863281 4.457031 0.863281 Z M 4.457031 0.863281 " clip-rule="nonzero"/>
        </clipPath>
        <clipPath id="0d5f697b42">
            <path d="M 14 14 L 15.09375 14 L 15.09375 15.09375 L 14 15.09375 Z M 14 14 " clip-rule="nonzero"/>
        </clipPath>
        <clipPath id="ff6cc4ee05">
            <path d="M 0 3.59375 L 0 12.304688 C 0 14.289062 1.609375 15.898438 3.59375 15.898438 L 12.304688 15.898438 C 14.289062 15.898438 15.898438 14.289062 15.898438 12.304688 L 15.898438 3.59375 C 15.898438 1.609375 14.289062 0 12.304688 0 L 3.59375 0 C 1.609375 0 0 1.609375 0 3.59375 Z M 0 3.59375 " clip-rule="nonzero"/>
        </clipPath>
        <clipPath id="6b1d59b42d">
            <path d="M 4.457031 0.863281 L 11.441406 0.863281 C 12.394531 0.863281 13.308594 1.242188 13.980469 1.914062 C 14.65625 2.589844 15.035156 3.503906 15.035156 4.457031 L 15.035156 11.441406 C 15.035156 13.425781 13.425781 15.035156 11.441406 15.035156 L 4.457031 15.035156 C 3.503906 15.035156 2.589844 14.65625 1.914062 13.980469 C 1.242188 13.308594 0.863281 12.394531 0.863281 11.441406 L 0.863281 4.457031 C 0.863281 2.472656 2.472656 0.863281 4.457031 0.863281 Z M 4.457031 0.863281 " clip-rule="nonzero"/>
        </clipPath>
        <clipPath id="08e02e3000">
            <path d="M 0.71875 14 L 2 14 L 2 15.09375 L 0.71875 15.09375 Z M 0.71875 14 " clip-rule="nonzero"/>
        </clipPath>
        <clipPath id="9c2e1407e0">
            <path d="M 0 3.59375 L 0 12.304688 C 0 14.289062 1.609375 15.898438 3.59375 15.898438 L 12.304688 15.898438 C 14.289062 15.898438 15.898438 14.289062 15.898438 12.304688 L 15.898438 3.59375 C 15.898438 1.609375 14.289062 0 12.304688 0 L 3.59375 0 C 1.609375 0 0 1.609375 0 3.59375 Z M 0 3.59375 " clip-rule="nonzero"/>
        </clipPath>
        <clipPath id="b4d2c6a65d">
            <path d="M 4.457031 0.863281 L 11.441406 0.863281 C 12.394531 0.863281 13.308594 1.242188 13.980469 1.914062 C 14.65625 2.589844 15.035156 3.503906 15.035156 4.457031 L 15.035156 11.441406 C 15.035156 13.425781 13.425781 15.035156 11.441406 15.035156 L 4.457031 15.035156 C 3.503906 15.035156 2.589844 14.65625 1.914062 13.980469 C 1.242188 13.308594 0.863281 12.394531 0.863281 11.441406 L 0.863281 4.457031 C 0.863281 2.472656 2.472656 0.863281 4.457031 0.863281 Z M 4.457031 0.863281 " clip-rule="nonzero"/>
        </clipPath>
        <clipPath id="3a9537fa61">
            <path d="M 0 0 L 15.8125 0 L 15.8125 15.8125 L 0 15.8125 Z M 0 0 " clip-rule="nonzero"/>
        </clipPath>
        <clipPath id="4987abefd3">
            <path d="M 0 3.59375 L 0 12.304688 C 0 14.289062 1.609375 15.898438 3.59375 15.898438 L 12.304688 15.898438 C 14.289062 15.898438 15.898438 14.289062 15.898438 12.304688 L 15.898438 3.59375 C 15.898438 1.609375 14.289062 0 12.304688 0 L 3.59375 0 C 1.609375 0 0 1.609375 0 3.59375 Z M 0 3.59375 " clip-rule="nonzero"/>
        </clipPath>
        <clipPath id="b436fbd350">
            <path d="M 0 3.59375 L 0 12.296875 C 0 14.28125 1.609375 15.890625 3.59375 15.890625 L 12.296875 15.890625 C 14.28125 15.890625 15.890625 14.28125 15.890625 12.296875 L 15.890625 3.59375 C 15.890625 1.609375 14.28125 0 12.296875 0 L 3.59375 0 C 1.609375 0 0 1.609375 0 3.59375 Z M 0 3.59375 " clip-rule="nonzero"/>
        </clipPath>
    </defs>
    <g clip-path="url(#63e93df246)">
        <g clip-path="url(#1cc47679b3)">
            <g clip-path="url(#6f04ca127e)">
                <path fill="#ffffff" d="M 15.335938 1.445312 L 15.808594 1.445312 L 15.808594 14.359375 L 15.335938 14.359375 Z M 15.335938 1.445312 " fill-opacity="1" fill-rule="nonzero"/>
            </g>
        </g>
    </g>
    <g clip-path="url(#622aa43732)">
        <g clip-path="url(#60cf044dfe)">
            <g clip-path="url(#bc8f0175dd)">
                <path fill="#ffffff" d="M 1.445312 15.335938 L 14.359375 15.335938 L 14.359375 15.808594 L 1.445312 15.808594 Z M 1.445312 15.335938 " fill-opacity="1" fill-rule="nonzero"/>
            </g>
        </g>
    </g>
    <g clip-path="url(#1127edc1cd)">
        <g clip-path="url(#96357c7a01)">
            <g clip-path="url(#3f1ad9aa67)">
                <path fill="#ffffff" d="M 15.335938 0.46875 L 15.335938 1.445312 L 15.808594 1.445312 L 15.808594 -0.00390625 L 14.359375 -0.00390625 L 14.359375 0.46875 Z M 15.335938 0.46875 " fill-opacity="1" fill-rule="nonzero"/>
            </g>
        </g>
    </g>
    <g clip-path="url(#1544be973c)">
        <g clip-path="url(#c0fb62eef2)">
            <g clip-path="url(#80e88d13fd)">
                <path fill="#ffffff" d="M 0.46875 0.46875 L 1.445312 0.46875 L 1.445312 -0.00390625 L -0.00390625 -0.00390625 L -0.00390625 1.445312 L 0.46875 1.445312 Z M 0.46875 0.46875 " fill-opacity="1" fill-rule="nonzero"/>
            </g>
        </g>
    </g>
    <g clip-path="url(#0d5f697b42)">
        <g clip-path="url(#ff6cc4ee05)">
            <g clip-path="url(#6b1d59b42d)">
                <path fill="#ffffff" d="M 15.335938 15.335938 L 14.359375 15.335938 L 14.359375 15.808594 L 15.808594 15.808594 L 15.808594 14.359375 L 15.335938 14.359375 Z M 15.335938 15.335938 " fill-opacity="1" fill-rule="nonzero"/>
            </g>
        </g>
    </g>
    <g clip-path="url(#08e02e3000)">
        <g clip-path="url(#9c2e1407e0)">
            <g clip-path="url(#b4d2c6a65d)">
                <path fill="#ffffff" d="M 0.46875 15.335938 L 0.46875 14.359375 L -0.00390625 14.359375 L -0.00390625 15.808594 L 1.445312 15.808594 L 1.445312 15.335938 Z M 0.46875 15.335938 " fill-opacity="1" fill-rule="nonzero"/>
            </g>
        </g>
    </g>
    <g clip-path="url(#3a9537fa61)">
        <g clip-path="url(#4987abefd3)">
            <g clip-path="url(#b436fbd350)">
                <path stroke-linecap="butt" transform="matrix(0.71875, 0, 0, 0.71875, 0.0000005, 0.000000000000019151)" fill="none" stroke-linejoin="miter" d="M -0.000000695652 5 L -0.000000695652 17.108696 C -0.000000695652 19.869566 2.23913 22.108696 4.999999 22.108696 L 17.108696 22.108696 C 19.869565 22.108696 22.108696 19.869566 22.108696 17.108696 L 22.108696 5 C 22.108696 2.239131 19.869565 -0.000000000000026645 17.108696 -0.000000000000026645 L 4.999999 -0.000000000000026645 C 2.23913 -0.000000000000026645 -0.000000695652 2.239131 -0.000000695652 5 Z M -0.000000695652 5 " stroke="#00aeef" stroke-width="6" stroke-opacity="1" stroke-miterlimit="4"/>
            </g>
        </g>
    </g>
</svg>