<svg xmlns="http://www.w3.org/2000/svg" xmlns:xlink="http://www.w3.org/1999/xlink" width="23" zoomAndPan="magnify" viewBox="0 0 17.25 17.249999" height="23" preserveAspectRatio="xMidYMid meet" version="1.0"><defs><clipPath id="2645488352"><path d="M 14 0.71875 L 15.09375 0.71875 L 15.09375 2 L 14 2 Z M 14 0.71875 " clip-rule="nonzero"/></clipPath><clipPath id="4869399fd1"><path d="M 0 3.59375 L 0 12.304688 C 0 14.289062 1.609375 15.898438 3.59375 15.898438 L 12.304688 15.898438 C 14.289062 15.898438 15.898438 14.289062 15.898438 12.304688 L 15.898438 3.59375 C 15.898438 1.609375 14.289062 0 12.304688 0 L 3.59375 0 C 1.609375 0 0 1.609375 0 3.59375 Z M 0 3.59375 " clip-rule="nonzero"/></clipPath><clipPath id="a801a40122"><path d="M 4.457031 0.863281 L 11.441406 0.863281 C 12.394531 0.863281 13.308594 1.242188 13.980469 1.914062 C 14.65625 2.589844 15.035156 3.503906 15.035156 4.457031 L 15.035156 11.441406 C 15.035156 13.425781 13.425781 15.035156 11.441406 15.035156 L 4.457031 15.035156 C 3.503906 15.035156 2.589844 14.65625 1.914062 13.980469 C 1.242188 13.308594 0.863281 12.394531 0.863281 11.441406 L 0.863281 4.457031 C 0.863281 2.472656 2.472656 0.863281 4.457031 0.863281 Z M 4.457031 0.863281 " clip-rule="nonzero"/></clipPath><clipPath id="6c92d162ee"><path d="M 0.71875 0.71875 L 2 0.71875 L 2 2 L 0.71875 2 Z M 0.71875 0.71875 " clip-rule="nonzero"/></clipPath><clipPath id="f3c147db1e"><path d="M 0 3.59375 L 0 12.304688 C 0 14.289062 1.609375 15.898438 3.59375 15.898438 L 12.304688 15.898438 C 14.289062 15.898438 15.898438 14.289062 15.898438 12.304688 L 15.898438 3.59375 C 15.898438 1.609375 14.289062 0 12.304688 0 L 3.59375 0 C 1.609375 0 0 1.609375 0 3.59375 Z M 0 3.59375 " clip-rule="nonzero"/></clipPath><clipPath id="a9b6c846c3"><path d="M 4.457031 0.863281 L 11.441406 0.863281 C 12.394531 0.863281 13.308594 1.242188 13.980469 1.914062 C 14.65625 2.589844 15.035156 3.503906 15.035156 4.457031 L 15.035156 11.441406 C 15.035156 13.425781 13.425781 15.035156 11.441406 15.035156 L 4.457031 15.035156 C 3.503906 15.035156 2.589844 14.65625 1.914062 13.980469 C 1.242188 13.308594 0.863281 12.394531 0.863281 11.441406 L 0.863281 4.457031 C 0.863281 2.472656 2.472656 0.863281 4.457031 0.863281 Z M 4.457031 0.863281 " clip-rule="nonzero"/></clipPath><clipPath id="9b843c853b"><path d="M 14 14 L 15.09375 14 L 15.09375 15.09375 L 14 15.09375 Z M 14 14 " clip-rule="nonzero"/></clipPath><clipPath id="cea74cf503"><path d="M 0 3.59375 L 0 12.304688 C 0 14.289062 1.609375 15.898438 3.59375 15.898438 L 12.304688 15.898438 C 14.289062 15.898438 15.898438 14.289062 15.898438 12.304688 L 15.898438 3.59375 C 15.898438 1.609375 14.289062 0 12.304688 0 L 3.59375 0 C 1.609375 0 0 1.609375 0 3.59375 Z M 0 3.59375 " clip-rule="nonzero"/></clipPath><clipPath id="3b91faebee"><path d="M 4.457031 0.863281 L 11.441406 0.863281 C 12.394531 0.863281 13.308594 1.242188 13.980469 1.914062 C 14.65625 2.589844 15.035156 3.503906 15.035156 4.457031 L 15.035156 11.441406 C 15.035156 13.425781 13.425781 15.035156 11.441406 15.035156 L 4.457031 15.035156 C 3.503906 15.035156 2.589844 14.65625 1.914062 13.980469 C 1.242188 13.308594 0.863281 12.394531 0.863281 11.441406 L 0.863281 4.457031 C 0.863281 2.472656 2.472656 0.863281 4.457031 0.863281 Z M 4.457031 0.863281 " clip-rule="nonzero"/></clipPath><clipPath id="0fece6b142"><path d="M 0.71875 14 L 2 14 L 2 15.09375 L 0.71875 15.09375 Z M 0.71875 14 " clip-rule="nonzero"/></clipPath><clipPath id="5370474846"><path d="M 0 3.59375 L 0 12.304688 C 0 14.289062 1.609375 15.898438 3.59375 15.898438 L 12.304688 15.898438 C 14.289062 15.898438 15.898438 14.289062 15.898438 12.304688 L 15.898438 3.59375 C 15.898438 1.609375 14.289062 0 12.304688 0 L 3.59375 0 C 1.609375 0 0 1.609375 0 3.59375 Z M 0 3.59375 " clip-rule="nonzero"/></clipPath><clipPath id="2a564c93b1"><path d="M 4.457031 0.863281 L 11.441406 0.863281 C 12.394531 0.863281 13.308594 1.242188 13.980469 1.914062 C 14.65625 2.589844 15.035156 3.503906 15.035156 4.457031 L 15.035156 11.441406 C 15.035156 13.425781 13.425781 15.035156 11.441406 15.035156 L 4.457031 15.035156 C 3.503906 15.035156 2.589844 14.65625 1.914062 13.980469 C 1.242188 13.308594 0.863281 12.394531 0.863281 11.441406 L 0.863281 4.457031 C 0.863281 2.472656 2.472656 0.863281 4.457031 0.863281 Z M 4.457031 0.863281 " clip-rule="nonzero"/></clipPath><clipPath id="d288d68ef9"><path d="M 0 0 L 15.8125 0 L 15.8125 15.8125 L 0 15.8125 Z M 0 0 " clip-rule="nonzero"/></clipPath><clipPath id="5dc3f92777"><path d="M 0 3.59375 L 0 12.304688 C 0 14.289062 1.609375 15.898438 3.59375 15.898438 L 12.304688 15.898438 C 14.289062 15.898438 15.898438 14.289062 15.898438 12.304688 L 15.898438 3.59375 C 15.898438 1.609375 14.289062 0 12.304688 0 L 3.59375 0 C 1.609375 0 0 1.609375 0 3.59375 Z M 0 3.59375 " clip-rule="nonzero"/></clipPath><clipPath id="f569a4254a"><path d="M 0 3.59375 L 0 12.296875 C 0 14.28125 1.609375 15.890625 3.59375 15.890625 L 12.296875 15.890625 C 14.28125 15.890625 15.890625 14.28125 15.890625 12.296875 L 15.890625 3.59375 C 15.890625 1.609375 14.28125 0 12.296875 0 L 3.59375 0 C 1.609375 0 0 1.609375 0 3.59375 Z M 0 3.59375 " clip-rule="nonzero"/></clipPath></defs><g clip-path="url(#2645488352)"><g clip-path="url(#4869399fd1)"><g clip-path="url(#a801a40122)"><path fill="#29abe2" d="M 15.417969 0.476562 L 15.417969 1.457031 L 15.890625 1.457031 L 15.890625 0 L 14.433594 0 L 14.433594 0.476562 Z M 15.417969 0.476562 " fill-opacity="1" fill-rule="nonzero"/></g></g></g><g clip-path="url(#6c92d162ee)"><g clip-path="url(#f3c147db1e)"><g clip-path="url(#a9b6c846c3)"><path fill="#29abe2" d="M 0.476562 0.476562 L 1.457031 0.476562 L 1.457031 0 L 0 0 L 0 1.457031 L 0.476562 1.457031 Z M 0.476562 0.476562 " fill-opacity="1" fill-rule="nonzero"/></g></g></g><g clip-path="url(#9b843c853b)"><g clip-path="url(#cea74cf503)"><g clip-path="url(#3b91faebee)"><path fill="#29abe2" d="M 15.417969 15.417969 L 14.433594 15.417969 L 14.433594 15.890625 L 15.890625 15.890625 L 15.890625 14.433594 L 15.417969 14.433594 Z M 15.417969 15.417969 " fill-opacity="1" fill-rule="nonzero"/></g></g></g><g clip-path="url(#0fece6b142)"><g clip-path="url(#5370474846)"><g clip-path="url(#2a564c93b1)"><path fill="#29abe2" d="M 0.476562 15.417969 L 0.476562 14.433594 L 0 14.433594 L 0 15.890625 L 1.457031 15.890625 L 1.457031 15.417969 Z M 0.476562 15.417969 " fill-opacity="1" fill-rule="nonzero"/></g></g></g><g clip-path="url(#d288d68ef9)"><g clip-path="url(#5dc3f92777)"><g clip-path="url(#f569a4254a)"><path stroke-linecap="butt" transform="matrix(0.71875, 0, 0, 0.71875, 0.0000005, 0.000000000000019151)" fill="none" stroke-linejoin="miter" d="M -0.000000695652 5 L -0.000000695652 17.108696 C -0.000000695652 19.869566 2.23913 22.108696 4.999999 22.108696 L 17.108696 22.108696 C 19.869565 22.108696 22.108696 19.869566 22.108696 17.108696 L 22.108696 5 C 22.108696 2.239131 19.869565 -0.000000000000026645 17.108696 -0.000000000000026645 L 4.999999 -0.000000000000026645 C 2.23913 -0.000000000000026645 -0.000000695652 2.239131 -0.000000695652 5 Z M -0.000000695652 5 " stroke="#297fc4" stroke-width="6" stroke-opacity="1" stroke-miterlimit="4"/></g></g></g></svg>